<?xml version="1.0" encoding="utf-8"?>
<svg version="1.1" id="Layer_1" xmlns="http://www.w3.org/2000/svg" xmlns:xlink="http://www.w3.org/1999/xlink" x="0px" y="0px"
	 viewBox="-952.86 -722.0662 2206.8601 1725.2158" enable-background="new -952.86 -722.0662 2206.8601 1725.2158"
	 xml:space="preserve">
<g>
	<circle fill="#190203" cx="1031.2197" cy="3.1558" r="64.4452"/>
	<path fill="#1B0B06" d="M-407.8537-500.7121c97.6521-18.4196,209.2244-55.54,245.3606-158.6055
		c1.9685,36.0659-15.5699,69.4368-37.1205,96.1053c-62.4674,77.3027-170.6978,98.9176-266.7329,117.1263
		c-34.8707,4.1479-69.5305,9.4207-103.9091,16.1699c-133.7883,26.2936-253.3752,116.7044-302.5176,245.0793
		c1.2654-54.7667,21.9214-109.5322,56.8055-149.677C-719.9326-445.0314-554.9998-480.8864-407.8537-500.7121z"/>
	<path fill="#2A0702" d="M787.8044-466.4038c-132.7338-12.2328-315.8754-44.0805-355.8783-193.0544
		c28.684,52.4467,78.9513,90.6217,135.2647,109.4631c164.3001,64.6093,369.0953,19.4039,501.7588,162.191
		c47.877,47.9472,88.864,107.8462,104.9637,174.213C1092.7826-352.0897,951.4016-456.6316,787.8044-466.4038z"/>
	<path fill="#1D0403" d="M301.2312-123.2506c24.2548-169.9948,189.3283-290.8471,356.8624-290.0738
		c203.1079-14.0608,411.7698,103.7685,489.5261,294.5733c82.8881,195.726-54.2747,418.1674-255.4142,461.0529
		c57.7898,32.0585,129.6404,46.3302,176.744,96.949c-160.2929-58.6334-329.5143-103.417-501.8994-91.7466
		c28.7542-21.0208,46.7521-28.9652-2.3903-42.815c-27.4457-7.7351-55.8061-28.8127-78.5916-45.3591
		c-24.8798-18.0672-47.9114-38.6051-69.2074-60.7652c-40.6007-42.248-72.8123-89.9471-93.0175-145.2204
		c-10.2838-28.1324-17.4237-57.4199-21.167-87.14c-1.8712-14.8563-2.8945-29.8205-3.0338-44.7939
		C299.5064-93.2233,302.6453-108.8112,301.2312-123.2506 M482.4746-307.5171c-195.0933,142.9278-110.2365,454.3036,93.7853,542.8866
		c168.7997,111.1504,452.8273,67.4214,529.5992-138.0768c83.5913-228.9797-129.8512-460.8419-353.4177-480.0349
		C656.6876-394.6938,556.4343-370.5797,482.4746-307.5171z"/>
	<path fill="#150604" d="M-421.6333-389.4914c116.0717-12.5141,240.4392,4.0073,336.4744,75.3658
		C83.2892-192.3593,75.1339,65.1639-59.4277,208.9353c-11.108,22.427-109.5334,68.1245-49.7047,71.7802
		c10.7861,2.2907,26.6095,6.997,7.9883,11.8618c-18.1651,4.7455-37.3814,4.9212-55.3659,9.6197
		c-41.8945,10.9451-79.3751,33.5252-119.7856,48.4682c-4.4473,1.6445-8.9273,3.2004-13.4467,4.6352
		c-39.9432,12.6815-82.4958,15.908-121.578,31.4934c-40.4574,16.1338-76.9691,41.5204-115.7906,61.0522
		c-16.9598,8.5328-34.4388,16.2117-52.706,21.4948c29.9495-34.8707,66.6481-62.3595,101.3782-91.9575
		c-105.8073-8.6473-205.4982-57.86-275.5209-137.655c-111.0801-125.9845-87.2471-318.2656,8.5771-446.0781
		C-660.2446-300.1351-547.9694-369.2439-421.6333-389.4914 M-740.3635,167.6338c7.7858,13.735,16.5598,26.8401,26.3229,38.7854
		c52.4243,64.1422,129.4185,94.5763,208.7841,109.2017c4.5851,0.8449,9.1892,1.5857,13.8136,2.181
		c19.5296,2.514,39.3077,2.4651,58.9749,1.5029c42.7232-2.09,85.5755-8.6289,126.037-22.8447
		c19.8239-6.965,37.6701-16.4206,55.8927-26.5045c15.7925-8.7391,32.3285-15.5784,47.7203-25.2305
		c61.438-38.5274,111.98-94.8873,143.0233-160.4723c16.2377-34.3052,27.0681-71.226,31.0194-109.0078
		c25.5203-204.6546-189.8204-365.1583-381.9608-328.9519c-15.1274,2.8506-30.9291,2.6921-46.1864,5.6482
		c-15.6712,3.0364-31.1265,7.165-46.255,12.2529c-30.6997,10.3246-60.0399,24.5861-87.4057,41.8857
		c-55.0184,34.7804-102.6359,81.9512-137.1132,137.2183c-33.1627,53.1597-54.2142,114.8033-53.9323,177.8657
		c0.1411,31.5763,5.7142,63.037,16.5703,92.695C-758.3895,132.0779-750.1585,150.3544-740.3635,167.6338z"/>
	<path fill="#110606" d="M706.9546,581.4052c-45.8383-59.8287-130.6946-35.0816-189.9612-10.616
		c-76.7713,27.559-116.4932,104.7529-187.9221,139.4831c-31.1441,16.1698-63.7652,32.2692-99.62,32.8318
		c-60.0398,9.4205-120.9927,5.0616-179.6971-9.4209c-53.3604-9.2098-105.5966-24.1142-156.3558-42.9556
		c-35.7141-12.9357-69.7409-30.301-106.2994-40.9873c143.7016,143.209,323.96,263.6395,529.5284,289.7928
		c111.7842,3.7258,236.0106,0.7732,326.9131-74.1006C726.2882,802.2999,765.5183,672.941,706.9546,581.4052z M346.0147,877.7358
		c-44.7132,6.4683-118.3211,6.1168-132.1708-49.4234c-36.9799-94.2073,93.0823-48.2987,138.2872-98.2847
		C395.2978,752.4547,401.1328,854.4652,346.0147,877.7358z M400.1492,707.1086c36.4873-44.4321,77.0528-90.4107,128.3749-118.4623
		c85.4186,12.8657,58.8143,149.9164-16.5924,187.36C451.9161,805.8073,375.754,779.4511,400.1492,707.1086z M513.0568,904.0298
		c-37.4716,10.1238-140.1537,27.2205-99.0579-34.5898c28.1506-42.34,96.6678-17.1542,143.7007-25.6607
		C658.7271,822.4771,554.4659,896.6475,513.0568,904.0298z M619.4266,832.0383c-37.6828-39.37,3.6559-106.5805,49.6349-116.915
		C746.4662,724.9656,662.5229,832.179,619.4266,832.0383z"/>
	<circle fill="#160807" cx="-104.1879" cy="-2.7029" r="44.5258"/>
</g>
</svg>
