<?xml version="1.0" encoding="UTF-8" standalone="no"?>
<!-- Created with Inkscape (http://www.inkscape.org/) -->
<!-- ClipArt by Arvin61r58 (http://openclipart.org/user-detail/Arvin61r58) -->
<svg
   xmlns:dc="http://purl.org/dc/elements/1.1/"
   xmlns:cc="http://creativecommons.org/ns#"
   xmlns:rdf="http://www.w3.org/1999/02/22-rdf-syntax-ns#"
   xmlns:svg="http://www.w3.org/2000/svg"
   xmlns="http://www.w3.org/2000/svg"
   xmlns:xlink="http://www.w3.org/1999/xlink"
   id="svg1173"
   version="1.1"
   viewBox="0 0 54.239583 54.239585"
   height="205"
   width="205">
  <title
     id="title1175">Smiley - Grin</title>
  <defs
     id="defs1167">
    <linearGradient
       gradientUnits="userSpaceOnUse"
       y2="86.639999"
       x2="90"
       y1="23.040001"
       x1="12.88"
       id="linearGradient12930"
       xlink:href="#linearGradient12888" />
    <linearGradient
       id="linearGradient12888">
      <stop
         stop-color="#f1e033"
         offset="0"
         id="stop12858" />
      <stop
         stop-color="#f3e135"
         offset="0.071429"
         id="stop12860" />
      <stop
         stop-color="#f6e32f"
         offset="0.142857"
         id="stop12862" />
      <stop
         stop-color="#f7e631"
         offset="0.214286"
         id="stop12864" />
      <stop
         stop-color="#faea2c"
         offset="0.285714"
         id="stop12866" />
      <stop
         stop-color="#f9e829"
         offset="0.357143"
         id="stop12868" />
      <stop
         stop-color="#f2e024"
         offset="0.428571"
         id="stop12870" />
      <stop
         stop-color="#ebda1e"
         offset="0.5"
         id="stop12872" />
      <stop
         stop-color="#e5d41b"
         offset="0.571429"
         id="stop12874" />
      <stop
         stop-color="#e3d21a"
         offset="0.642857"
         id="stop12876" />
      <stop
         stop-color="#dfcf17"
         offset="0.714286"
         id="stop12878" />
      <stop
         stop-color="#d8c914"
         offset="0.785714"
         id="stop12880" />
      <stop
         stop-color="#d4c312"
         offset="0.857143"
         id="stop12882" />
      <stop
         stop-color="#d1c10f"
         offset="0.928571"
         id="stop12884" />
      <stop
         stop-color="#cfbb0e"
         offset="1"
         id="stop12886" />
    </linearGradient>
  </defs>
  <metadata
     id="metadata1170">
    <rdf:RDF>
      <cc:Work
         rdf:about="">
        <dc:format>image/svg+xml</dc:format>
        <dc:type
           rdf:resource="http://purl.org/dc/dcmitype/StillImage" />
        <dc:title>Smiley - Grin</dc:title>
        <cc:license
           rdf:resource="http://creativecommons.org/publicdomain/zero/1.0/" />
        <dc:creator>
          <cc:Agent>
            <dc:title>Arvin61r58</dc:title>
          </cc:Agent>
        </dc:creator>
        <dc:publisher>
          <cc:Agent>
            <dc:title>Openclipart.org</dc:title>
          </cc:Agent>
        </dc:publisher>
        <dc:identifier>https://openclipart.org/</dc:identifier>
        <dc:source>https://openclipart.org/user-detail/Arvin61r58</dc:source>
        <dc:subject>
          <rdf:Bag>
            <rdf:li>grin</rdf:li>
            <rdf:li>happy</rdf:li>
            <rdf:li>smile</rdf:li>
            <rdf:li>smiley</rdf:li>
            <rdf:li>emoji</rdf:li>
            <rdf:li>emoticon</rdf:li>
            <rdf:li>face</rdf:li>
            <rdf:li>icon</rdf:li>
          </rdf:Bag>
        </dc:subject>
        <dc:description>smile/grin emoticon</dc:description>
      </cc:Work>
      <cc:License
         rdf:about="http://creativecommons.org/publicdomain/zero/1.0/">
        <cc:permits
           rdf:resource="http://creativecommons.org/ns#Reproduction" />
        <cc:permits
           rdf:resource="http://creativecommons.org/ns#Distribution" />
        <cc:permits
           rdf:resource="http://creativecommons.org/ns#DerivativeWorks" />
      </cc:License>
    </rdf:RDF>
  </metadata>
  <g
     transform="translate(0,-242.7604)"
     id="layer1">
    <g
       style="stroke-width:0.5"
       id="g167"
       transform="matrix(0.52916667,0,0,0.52916667,-0.94720818,241.85553)">
      <title
         id="title1313">Grin Smiley  --  by Arvin61r58</title>
      <path
         style="fill:url(#linearGradient12930);fill-opacity:1;fill-rule:nonzero;stroke:none;stroke-width:1px;stroke-linecap:round;stroke-linejoin:round;stroke-miterlimit:5;stroke-dasharray:none;stroke-opacity:1"
         d="m 103.04,52.96 -0.08,2.64 -0.48,5.04 -1.04,4.88 -1.44,4.72 -1.92,4.48 -2.32,4.24 -2.64,4 -3.12,3.68 -3.36,3.36 -3.68,3.12 -4,2.64 -4.24,2.32 -4.48,1.92 -4.72,1.44 -4.88,1.04 -5.04,0.48 H 53.04 50.4 l -5.04,-0.48 -4.88,-1.04 -4.72,-1.44 -4.48,-1.92 -4.24,-2.32 -4,-2.64 L 19.36,90 16,86.64 12.88,82.96 10.24,78.96 7.92,74.72 6,70.24 4.56,65.52 3.52,60.64 3.04,55.6 V 52.96 50.4 L 3.52,45.36 4.56,40.48 6,35.76 l 1.92,-4.48 2.32,-4.24 2.64,-4 3.12,-3.68 3.36,-3.36 3.68,-3.12 4,-2.64 4.24,-2.32 4.48,-1.92 4.72,-1.44 4.88,-1.04 5.04,-0.48 2.64,-0.08 2.56,0.08 5.04,0.48 4.88,1.04 4.72,1.44 4.48,1.92 4.24,2.32 4,2.64 3.68,3.12 3.36,3.36 3.12,3.68 2.64,4 2.32,4.24 1.92,4.48 1.44,4.72 1.04,4.88 0.48,5.04 z"
         id="path5" />
      <path
         style="fill:none;stroke:#000000;stroke-width:1.48000002px;stroke-linecap:round;stroke-linejoin:round;stroke-miterlimit:5;stroke-dasharray:none;stroke-opacity:1"
         d="m 78.8,70.4 -0.08,1.2 -1.04,2.16 -2,2 -2.8,1.76 -3.52,1.44 -4.08,1.2 -4.64,0.88 -4.96,0.4 -2.64,0.08 -2.72,-0.08 -4.96,-0.4 -4.64,-0.88 -4.08,-1.2 -3.52,-1.44 -2.8,-1.76 -2,-2 -1.04,-2.16 -0.08,-1.2"
         id="path7" />
      <path
         style="fill:#e3e3e3;fill-opacity:1;fill-rule:nonzero;stroke:none;stroke-width:0.5"
         d="m 30.64,45.36 -0.72,-1.04 -1.28,-2.4 -0.8,-2.64 -0.4,-2.72 v -2.8 l 0.4,-2.72 0.8,-2.56 1.28,-2.4 0.72,-1.04 0.96,-1.12 2.08,-1.36 2.08,-0.24 2,0.64 1.84,1.52 1.52,2.24 1.12,2.96 0.56,3.52 0.08,2 -0.08,1.92 -0.56,3.6 -1.12,2.88 -1.52,2.32 -1.84,1.52 -2,0.64 -2.08,-0.32 -2.08,-1.28 z"
         id="path9" />
      <path
         style="fill:#000000;fill-opacity:1;fill-rule:nonzero;stroke:none;stroke-width:0.5"
         d="m 38.96,38.08 -0.08,1.04 -0.56,1.84 -1.04,1.36 -1.36,0.8 H 35.12 34.4 L 32.96,42.32 32,40.96 31.36,39.12 V 38.08 37.04 L 32,35.2 l 0.96,-1.36 1.44,-0.8 0.72,-0.08 0.8,0.08 1.36,0.8 1.04,1.36 0.56,1.84 z"
         id="path11" />
      <path
         style="fill:#e3e3e3;fill-opacity:1;fill-rule:nonzero;stroke:none;stroke-width:0.5"
         d="m 66.4,45.36 -0.8,-1.04 -1.2,-2.4 -0.8,-2.64 -0.4,-2.72 v -2.8 l 0.4,-2.72 0.8,-2.56 1.2,-2.4 0.8,-1.04 0.96,-1.12 2,-1.36 2.08,-0.24 2,0.64 1.84,1.52 1.52,2.24 1.12,2.96 0.56,3.52 0.08,2 -0.08,1.92 -0.56,3.6 -1.12,2.88 -1.52,2.32 -1.84,1.52 -2,0.64 -2.08,-0.32 -2,-1.28 z"
         id="path13" />
      <path
         style="fill:#000000;fill-opacity:1;fill-rule:nonzero;stroke:none;stroke-width:0.5"
         d="m 74.64,38.08 v 1.04 l -0.64,1.84 -0.96,1.36 -1.44,0.8 h -0.72 -0.8 l -1.36,-0.8 -1.04,-1.36 -0.56,-1.84 -0.08,-1.04 0.08,-1.04 0.56,-1.84 1.04,-1.36 1.36,-0.8 0.8,-0.08 0.72,0.08 1.44,0.8 0.96,1.36 0.64,1.84 z"
         id="path15" />
    </g>
  </g>
</svg>
